<svg width="114" height="44" viewBox="0 0 114 44" fill="none" xmlns="http://www.w3.org/2000/svg">
<path d="M0.472 34V0.399998H4.024V30.928H22.84V34H0.472ZM37.9146 34.24C35.4826 34.24 33.2906 33.696 31.3386 32.608C29.4186 31.488 27.8986 29.968 26.7786 28.048C25.6586 26.096 25.0986 23.872 25.0986 21.376C25.0986 18.848 25.6586 16.624 26.7786 14.704C27.8986 12.784 29.4186 11.28 31.3386 10.192C33.2586 9.104 35.4506 8.56 37.9146 8.56C40.4106 8.56 42.6186 9.104 44.5386 10.192C46.4906 11.28 48.0106 12.784 49.0986 14.704C50.2186 16.624 50.7786 18.848 50.7786 21.376C50.7786 23.872 50.2186 26.096 49.0986 28.048C48.0106 29.968 46.4906 31.488 44.5386 32.608C42.5866 33.696 40.3786 34.24 37.9146 34.24ZM37.9146 31.216C39.7386 31.216 41.3546 30.816 42.7626 30.016C44.1706 29.184 45.2746 28.032 46.0746 26.56C46.9066 25.056 47.3226 23.328 47.3226 21.376C47.3226 19.392 46.9066 17.664 46.0746 16.192C45.2746 14.72 44.1706 13.584 42.7626 12.784C41.3546 11.952 39.7546 11.536 37.9626 11.536C36.1706 11.536 34.5706 11.952 33.1626 12.784C31.7546 13.584 30.6346 14.72 29.8026 16.192C28.9706 17.664 28.5546 19.392 28.5546 21.376C28.5546 23.328 28.9706 25.056 29.8026 26.56C30.6346 28.032 31.7546 29.184 33.1626 30.016C34.5706 30.816 36.1546 31.216 37.9146 31.216ZM68.4884 43.552C66.1844 43.552 63.9764 43.216 61.8644 42.544C59.7524 41.872 58.0404 40.912 56.7284 39.664L58.4564 37.072C59.6404 38.128 61.0964 38.96 62.8244 39.568C64.5844 40.208 66.4404 40.528 68.3924 40.528C71.5924 40.528 73.9444 39.776 75.4484 38.272C76.9524 36.8 77.7044 34.496 77.7044 31.36V25.072L78.1844 20.752L77.8484 16.432V8.8H81.1124V30.928C81.1124 35.28 80.0404 38.464 77.8964 40.48C75.7844 42.528 72.6484 43.552 68.4884 43.552ZM67.8644 33.04C65.4644 33.04 63.3044 32.528 61.3844 31.504C59.4644 30.448 57.9444 28.992 56.8244 27.136C55.7364 25.28 55.1924 23.152 55.1924 20.752C55.1924 18.352 55.7364 16.24 56.8244 14.416C57.9444 12.56 59.4644 11.12 61.3844 10.096C63.3044 9.072 65.4644 8.56 67.8644 8.56C70.1044 8.56 72.1204 9.024 73.9124 9.952C75.7044 10.88 77.1284 12.256 78.1844 14.08C79.2404 15.904 79.7684 18.128 79.7684 20.752C79.7684 23.376 79.2404 25.6 78.1844 27.424C77.1284 29.248 75.7044 30.64 73.9124 31.6C72.1204 32.56 70.1044 33.04 67.8644 33.04ZM68.2004 30.016C70.0564 30.016 71.7044 29.632 73.1444 28.864C74.5844 28.064 75.7204 26.976 76.5524 25.6C77.3844 24.192 77.8004 22.576 77.8004 20.752C77.8004 18.928 77.3844 17.328 76.5524 15.952C75.7204 14.576 74.5844 13.504 73.1444 12.736C71.7044 11.936 70.0564 11.536 68.2004 11.536C66.3764 11.536 64.7284 11.936 63.2564 12.736C61.8164 13.504 60.6804 14.576 59.8484 15.952C59.0484 17.328 58.6484 18.928 58.6484 20.752C58.6484 22.576 59.0484 24.192 59.8484 25.6C60.6804 26.976 61.8164 28.064 63.2564 28.864C64.7284 29.632 66.3764 30.016 68.2004 30.016ZM100.868 34.24C98.4358 34.24 96.2438 33.696 94.2918 32.608C92.3718 31.488 90.8518 29.968 89.7318 28.048C88.6118 26.096 88.0518 23.872 88.0518 21.376C88.0518 18.848 88.6118 16.624 89.7318 14.704C90.8518 12.784 92.3718 11.28 94.2918 10.192C96.2118 9.104 98.4038 8.56 100.868 8.56C103.364 8.56 105.572 9.104 107.492 10.192C109.444 11.28 110.964 12.784 112.052 14.704C113.172 16.624 113.732 18.848 113.732 21.376C113.732 23.872 113.172 26.096 112.052 28.048C110.964 29.968 109.444 31.488 107.492 32.608C105.54 33.696 103.332 34.24 100.868 34.24ZM100.868 31.216C102.692 31.216 104.308 30.816 105.716 30.016C107.124 29.184 108.228 28.032 109.028 26.56C109.86 25.056 110.276 23.328 110.276 21.376C110.276 19.392 109.86 17.664 109.028 16.192C108.228 14.72 107.124 13.584 105.716 12.784C104.308 11.952 102.708 11.536 100.916 11.536C99.1238 11.536 97.5238 11.952 96.1158 12.784C94.7078 13.584 93.5878 14.72 92.7558 16.192C91.9238 17.664 91.5078 19.392 91.5078 21.376C91.5078 23.328 91.9238 25.056 92.7558 26.56C93.5878 28.032 94.7078 29.184 96.1158 30.016C97.5238 30.816 99.1078 31.216 100.868 31.216Z" fill="white"/>
</svg>
